# xmcd
#
# Track frame offsets:
# 150
# 11201
# 23581
# 39174
# 52535
# 71426
# 93951
# 109476
# 119939
# 134021
# 151655
# 168805
# 181591
# 194723
# 209568
# 222706
#
# Disc length: 3213 seconds
#
#
# Revision: 0
# Processed by: cddbd v1.5.2PL0 Copyright (c) Steve Scherf et al.
# Submitted via: FreeRIP 2.951 
#
DISCID=e10c8b10
DTITLE=Fleetwood Mac - Man Of The World
DYEAR=1978
DGENRE=Blues
TTITLE0=Man Of The World
TTITLE1=Black Magic Woman
TTITLE2=Need Your Love Tonight
TTITLE3=My Heart Beat Like A Hammer
TTITLE4=Watch Out
TTITLE5=Love That Burns
TTITLE6=I Can't Hold Out
TTITLE7=Stop Messin' Round
TTITLE8=Albatross
TTITLE9=Need Your Love So Bad
TTITLE10=Like It This Way
TTITLE11=Looking For Somebody
TTITLE12=Shake Your Moneymaker
TTITLE13=Homework
TTITLE14=I Believe My Time Ain't Long
TTITLE15=Merry Go Round
EXTD=Peter Green (voc, git, harm]\nJeremy Spencer (voc, slide git]\nDanny Kirwan (voc, git]\nJohn McVie (bass]\nMick Fleetwood (dr)
EXTT0=
EXTT1=
EXTT2=
EXTT3=
EXTT4=
EXTT5=
EXTT6=
EXTT7=
EXTT8=
EXTT9=
EXTT10=
EXTT11=
EXTT12=
EXTT13=
EXTT14=
EXTT15=
PLAYORDER=
